<svg width="77" height="55" viewBox="0 0 77 55" fill="none" xmlns="http://www.w3.org/2000/svg">
<path d="M25.297 3.21085C26.5782 1.94417 28.6401 1.94417 29.9213 3.21086L51.9173 24.9574C53.2194 26.2447 53.2194 28.3475 51.9173 29.6348L29.9213 51.3813C28.6401 52.648 26.5782 52.648 25.297 51.3813L3.30103 29.6348C1.99899 28.3475 1.99899 26.2447 3.30103 24.9574L25.297 3.21085Z" stroke="#00FFF0" stroke-width="1.31547"/>
<path d="M19.5398 19.4062V34.1816H15.9406V19.4062H19.5398ZM32.7981 24.0788C32.5315 23.5877 32.1456 23.2158 31.6405 22.9633C31.1494 22.6967 30.5671 22.5634 29.8935 22.5634C28.7289 22.5634 27.7958 22.9492 27.0942 23.721C26.3926 24.4787 26.0418 25.496 26.0418 26.7729C26.0418 28.134 26.4067 29.2004 27.1363 29.9721C27.88 30.7298 28.8973 31.1087 30.1882 31.1087C31.0722 31.1087 31.8159 30.8842 32.4193 30.4352C33.0367 29.9862 33.4857 29.3407 33.7663 28.4988H29.199V25.8468H37.0287V29.1934C36.7621 30.0914 36.306 30.9263 35.6606 31.698C35.0292 32.4698 34.2223 33.0942 33.2401 33.5713C32.2579 34.0483 31.1494 34.2869 29.9146 34.2869C28.4553 34.2869 27.1503 33.9712 25.9997 33.3397C24.8632 32.6943 23.9722 31.8033 23.3267 30.6667C22.6953 29.5301 22.3796 28.2322 22.3796 26.7729C22.3796 25.3136 22.6953 24.0157 23.3267 22.8791C23.9722 21.7285 24.8632 20.8375 25.9997 20.206C27.1363 19.5606 28.4342 19.2378 29.8935 19.2378C31.6615 19.2378 33.1489 19.6658 34.3556 20.5218C35.5764 21.3777 36.3832 22.5634 36.7761 24.0788H32.7981ZM43.4633 22.2898V25.2785H48.2832V28.0568H43.4633V31.2981H48.9146V34.1816H39.8642V19.4062H48.9146V22.2898H43.4633ZM55.6923 31.4034H60.407V34.1816H52.0932V19.4062H55.6923V31.4034ZM74.226 24.163C74.226 25.0189 74.0296 25.8047 73.6367 26.5203C73.2438 27.2219 72.6404 27.7902 71.8266 28.2252C71.0128 28.6602 70.0025 28.8776 68.7957 28.8776H66.5647V34.1816H62.9656V19.4062H68.7957C69.9744 19.4062 70.9707 19.6097 71.7845 20.0166C72.5983 20.4235 73.2087 20.9848 73.6156 21.7004C74.0226 22.416 74.226 23.2369 74.226 24.163ZM68.5221 26.0152C69.2097 26.0152 69.7218 25.8538 70.0586 25.5311C70.3954 25.2083 70.5637 24.7523 70.5637 24.163C70.5637 23.5737 70.3954 23.1176 70.0586 22.7949C69.7218 22.4722 69.2097 22.3108 68.5221 22.3108H66.5647V26.0152H68.5221Z" fill="white"/>
</svg>
